<svg xmlns="http://www.w3.org/2000/svg" xmlns:xlink="http://www.w3.org/1999/xlink" version="1.1" id="Layer_1" x="0px" y="0px" width="90px" height="90px" viewBox="4.5 -9.0 90.0 121.5" enable-background="new 0 0 90 90" xml:space="preserve">
<path d="M16.085,30.88l-1.091,0.186l-0.174-0.764c-0.328,0.076-0.644,0.164-0.96,0.273c0.021,0.327,0.065,0.665,0.131,0.981  l2.149-0.382L16.085,30.88z M26.089,21.487l-1.941,0.295c-0.022-0.131-0.044-0.262-0.044-0.404l-0.01,0.012  c-0.35,0.349-0.666,0.73-0.928,1.123c0.065-0.01,0.131-0.01,0.196-0.01c0.545,0,1.091,0.054,1.626,0.174  c0.327,0.077,0.666,0,0.928-0.207c0.25-0.208,0.403-0.523,0.403-0.851v-0.131H26.089z M16.718,46.938  c-0.49-0.021-0.971-0.087-1.44-0.196c-3.262-0.741-5.694-3.666-5.694-7.146c0-3.404,2.411-6.414,5.716-7.167  c0.567-0.131,0.938-0.676,0.84-1.244v-0.012l-0.055-0.294l-1.091,0.186l-0.174-0.764c-0.328,0.076-0.644,0.164-0.96,0.273  c-3.84,1.287-6.458,4.876-6.458,9.021c0,4.897,3.73,8.957,8.51,9.458c0.337,0.045,0.676,0.065,1.025,0.065v-2.182H16.718z   M32.612,51.695v-0.012l-0.687-0.338c-0.447,0.884-1.058,1.659-1.822,2.302c-1.32,1.113-3,1.725-4.734,1.725  c-3.404,0-6.273-2.334-7.091-5.488c-0.164-0.59-0.251-1.21-0.251-1.854c0-0.6-0.48-1.079-1.069-1.091h-0.241l-0.021,1.091h-0.851  c0,0.35,0.021,0.688,0.065,1.025c0.501,4.778,4.549,8.498,9.458,8.498c2.247,0,4.418-0.785,6.142-2.235  c0.436-0.371,0.829-0.775,1.178-1.212c0.294-0.327,0.545-0.676,0.763-1.047c0.164-0.239,0.294-0.479,0.425-0.73L32.612,51.695z   M63.966,20.549l0.021,0.087c-0.251-0.208-0.513-0.382-0.785-0.545c0.011,0.087,0.011,0.164,0.011,0.251  c0,0.371-0.022,0.741-0.076,1.113l0.218,0.032l1.845,0.284l0.086,0.011c0.077-0.47,0.109-0.96,0.109-1.44  C64.915,20.375,64.435,20.44,63.966,20.549z M66.07,20.32c-0.229,0-0.446,0.01-0.676,0.022c-0.479,0.032-0.96,0.098-1.429,0.207  l0.021,0.087l0.197,0.851h-1.07v0.131c0,0.327,0.154,0.643,0.415,0.851c0.251,0.207,0.589,0.284,0.917,0.207  c0.446-0.098,0.894-0.152,1.352-0.164c0.088-0.01,0.187-0.01,0.272-0.01c4.06,0,7.354,3.294,7.354,7.341  c0,0.35-0.021,0.699-0.076,1.036l-0.022,0.109c0,0.065-0.01,0.12-0.021,0.185l2.149,0.382c0.055-0.316,0.099-0.644,0.12-0.981  c0.022-0.241,0.032-0.491,0.032-0.731C75.605,24.597,71.33,20.32,66.07,20.32z M28.937,47.124c-0.426-0.426-1.113-0.426-1.539,0  c-1.222,1.211-2.847,1.888-4.571,1.888s-3.338-0.677-4.561-1.888c-2.52-2.52-2.52-6.611,0-9.131c0.426-0.425,0.426-1.113,0-1.538  c-0.425-0.426-1.112-0.426-1.537,0c-2.783,2.782-3.273,7.003-1.452,10.287c0.469,0.109,0.95,0.175,1.44,0.196h0.241  c0.588,0.012,1.069,0.491,1.069,1.091c0,0.645,0.087,1.265,0.251,1.854c1.352,0.862,2.913,1.309,4.549,1.309  c2.313,0,4.484-0.895,6.109-2.53C29.362,48.236,29.362,47.55,28.937,47.124z M57.475,51.271c-0.239-0.448-0.764-0.677-1.254-0.536  c-0.655,0.186-1.332,0.273-2.02,0.273c-4.036,0-7.319-3.272-7.341-7.31c3.785-0.916,6.601-4.331,6.601-8.389  c0-0.6-0.491-1.091-1.091-1.091c-0.601,0-1.092,0.491-1.092,1.091c0,3.567-2.892,6.458-6.458,6.458  c-3.557,0-6.447-2.891-6.447-6.458c0-0.6-0.491-1.091-1.091-1.091c-0.611,0-1.091,0.491-1.091,1.091  c0,3.917,2.618,7.233,6.186,8.281c-0.011,0.022-0.011,0.055-0.011,0.076c0,2.171-0.96,4.222-2.619,5.618  c-1.32,1.113-3,1.724-4.734,1.724c-0.622,0-1.232-0.077-1.833-0.229c-0.49-0.121-0.981,0.098-1.233,0.534l-0.021,0.032l0.687,0.338  c0.164-0.282,0.448-0.479,0.797-0.523c0.6-0.076,1.146,0.35,1.222,0.949c0.011,0.098,0.065,0.47,0.143,1.069  c0.076,0.011,0.163,0.011,0.239,0.011c0.666,0,1.32-0.065,1.953-0.207c0.349-0.065,0.687-0.153,1.015-0.272  c0.688-0.208,1.342-0.513,1.953-0.895c0.381-0.218,0.741-0.47,1.08-0.754c0.054-0.033,0.098-0.064,0.142-0.108  c1.876-1.582,3.055-3.797,3.327-6.196h0.262c0.316,2.804,1.866,5.247,4.081,6.753c0.338,0.252,0.708,0.469,1.079,0.654  c0.601,0.305,1.223,0.546,1.888,0.71c0.339,0.098,0.688,0.164,1.047,0.207c0.448,0.075,0.895,0.108,1.363,0.108  c0.164,0,0.327,0,0.491-0.011c0.077-0.6,0.131-0.972,0.143-1.069c0.076-0.6,0.622-1.025,1.222-0.949  c0.415,0.044,0.73,0.328,0.883,0.687l0.655-0.348L57.475,51.271z M65.798,22.513c-0.458,0.011-0.905,0.065-1.352,0.164  c-0.328,0.077-0.666,0-0.917-0.207c-0.261-0.208-0.415-0.523-0.415-0.851v-0.131h0.24l-0.218-0.032  c0.054-0.372,0.076-0.742,0.076-1.113c0-0.087,0-0.164-0.011-0.251c-3.316-1.997-7.702-1.56-10.56,1.298  c-0.426,0.425-0.426,1.113,0,1.538c0.425,0.426,1.123,0.426,1.549,0c2.509-2.52,6.61-2.509,9.131,0c2.509,2.52,2.509,6.611,0,9.131  c-0.437,0.426-0.437,1.113,0,1.539c0.207,0.218,0.491,0.327,0.764,0.327c0.283,0,0.557-0.109,0.774-0.327  C67.882,30.585,68.198,25.873,65.798,22.513z M75.573,30.575c-0.317-0.109-0.633-0.197-0.96-0.273l-0.176,0.764l-1.09-0.186  l-0.022,0.109l-0.032,0.197c-0.087,0.567,0.273,1.113,0.841,1.244c3.316,0.753,5.715,3.763,5.715,7.167  c0,3.328-2.226,6.142-5.268,7.048c1.745-3.273,1.243-7.44-1.506-10.189c-0.426-0.426-1.112-0.426-1.55,0  c-0.425,0.425-0.425,1.113,0,1.538c2.521,2.521,2.521,6.611,0,9.131c-2.509,2.51-6.61,2.52-9.119,0c-0.426-0.426-1.124-0.426-1.55,0  s-0.426,1.112,0,1.538c1.691,1.68,3.895,2.53,6.108,2.53c1.43,0,2.859-0.359,4.146-1.058c0.197-0.665,0.306-1.374,0.306-2.105  c0-0.6,0.468-1.079,1.068-1.091h0.022v2.182h0.055c0.326,0,0.654-0.021,0.971-0.065c4.767-0.501,8.498-4.561,8.498-9.458  C82.031,35.452,79.413,31.862,75.573,30.575z M63.322,32.058c-0.437,0.426-0.437,1.113,0,1.539c0.207,0.218,0.491,0.327,0.764,0.327  c0.283,0,0.557-0.109,0.774-0.327c3.021-3.011,3.338-7.724,0.938-11.084c-0.458,0.011-0.905,0.065-1.352,0.164  c-0.328,0.077-0.666,0-0.917-0.207c-0.261-0.208-0.415-0.523-0.415-0.851v-0.131h0.24l-0.218-0.032  c0.054-0.372,0.076-0.742,0.076-1.113c0-0.087,0-0.164-0.011-0.251c-3.316-1.997-7.702-1.56-10.56,1.298  c-0.426,0.425-0.426,1.113,0,1.538c0.425,0.426,1.123,0.426,1.549,0c2.509-2.52,6.61-2.509,9.131,0  C65.831,25.447,65.831,29.539,63.322,32.058z M56.221,50.734c-0.655,0.186-1.332,0.273-2.02,0.273c-4.036,0-7.319-3.272-7.341-7.31  c3.785-0.916,6.601-4.331,6.601-8.389c0-0.6-0.491-1.091-1.091-1.091c-0.601,0-1.092,0.491-1.092,1.091  c0,3.567-2.892,6.458-6.458,6.458c-3.557,0-6.447-2.891-6.447-6.458c0-0.6-0.491-1.091-1.091-1.091  c-0.611,0-1.091,0.491-1.091,1.091c0,3.917,2.618,7.233,6.186,8.281c-0.011,0.022-0.011,0.055-0.011,0.076  c0,2.171-0.96,4.222-2.619,5.618c-1.32,1.113-3,1.724-4.734,1.724c-0.622,0-1.232-0.077-1.833-0.229  c-0.49-0.121-0.981,0.098-1.233,0.534l-0.021,0.032l0.687,0.338c0.164-0.282,0.448-0.479,0.797-0.523  c0.6-0.076,1.146,0.35,1.222,0.949c0.011,0.098,0.065,0.47,0.143,1.069c0.076,0.011,0.163,0.011,0.239,0.011  c0.666,0,1.32-0.065,1.953-0.207c0.349-0.065,0.687-0.153,1.015-0.272c0.688-0.208,1.342-0.513,1.953-0.895  c0.381-0.218,0.741-0.47,1.08-0.754c0.054-0.033,0.098-0.064,0.142-0.108c1.876-1.582,3.055-3.797,3.327-6.196h0.262  c0.316,2.804,1.866,5.247,4.081,6.753c0.338,0.252,0.708,0.469,1.079,0.654c0.601,0.305,1.223,0.546,1.888,0.71  c0.339,0.098,0.688,0.164,1.047,0.207c0.448,0.075,0.895,0.108,1.363,0.108c0.164,0,0.327,0,0.491-0.011  c0.077-0.6,0.131-0.972,0.143-1.069c0.076-0.6,0.622-1.025,1.222-0.949c0.415,0.044,0.73,0.328,0.883,0.687l0.655-0.348l-0.12-0.229  C57.235,50.822,56.711,50.594,56.221,50.734z M27.398,47.124c-1.222,1.211-2.847,1.888-4.571,1.888s-3.338-0.677-4.561-1.888  c-2.52-2.52-2.52-6.611,0-9.131c0.426-0.425,0.426-1.113,0-1.538c-0.425-0.426-1.112-0.426-1.537,0  c-2.783,2.782-3.273,7.003-1.452,10.287c0.469,0.109,0.95,0.175,1.44,0.196h0.241c0.588,0.012,1.069,0.491,1.069,1.091  c0,0.645,0.087,1.265,0.251,1.854c1.352,0.862,2.913,1.309,4.549,1.309c2.313,0,4.484-0.895,6.109-2.53  c0.425-0.426,0.425-1.112,0-1.538C28.511,46.698,27.824,46.698,27.398,47.124z M72.736,48.029l-0.021-1.091h-0.229  c-0.601,0.012-1.068,0.491-1.068,1.091c0,0.731-0.108,1.44-0.306,2.105c-0.906,3.021-3.721,5.237-7.048,5.237  c-2.606,0-5.018-1.385-6.337-3.634l-0.132-0.239l-0.655,0.348l-1.276,0.688c0.088,0.163,0.187,0.327,0.285,0.49  c0.239,0.404,0.523,0.774,0.818,1.135c1.788,2.128,4.45,3.393,7.297,3.393c4.91,0,8.967-3.72,9.47-8.498  c0.043-0.315,0.065-0.643,0.065-0.97v-0.056H72.736z M57.727,51.738l-0.132-0.239l-0.12-0.229c-0.239-0.448-0.764-0.677-1.254-0.536  c-0.655,0.186-1.332,0.273-2.02,0.273c-4.036,0-7.319-3.272-7.341-7.31v-0.032c0-0.589-0.48-1.081-1.07-1.091h-2.345  c-0.578,0-1.036,0.448-1.069,1.015c-0.011,0.022-0.011,0.055-0.011,0.076c0,2.171-0.96,4.222-2.619,5.618  c-1.32,1.113-3,1.724-4.734,1.724c-0.622,0-1.232-0.077-1.833-0.229c-0.49-0.121-0.981,0.098-1.233,0.534l-0.021,0.032l-0.12,0.229  l0.698,0.383l0.327,0.186l-0.196,0.753c0.273,0.064,0.545,0.119,0.818,0.163c0.437,0.077,0.873,0.12,1.321,0.12  c0.076,0.011,0.163,0.011,0.239,0.011c0.666,0,1.32-0.065,1.953-0.207c0.349-0.065,0.687-0.153,1.015-0.272  c0.688-0.208,1.342-0.513,1.953-0.895c0.381-0.218,0.741-0.47,1.08-0.754c0.054-0.033,0.098-0.064,0.142-0.108  c1.876-1.582,3.055-3.797,3.327-6.196h0.262c0.316,2.804,1.866,5.247,4.081,6.753c0.338,0.252,0.708,0.469,1.079,0.654  c0.601,0.305,1.223,0.546,1.888,0.71c0.339,0.098,0.688,0.164,1.047,0.207c0.448,0.075,0.895,0.108,1.363,0.108  c0.164,0,0.327,0,0.491-0.011c0.415-0.022,0.84-0.076,1.256-0.153c0.294-0.043,0.577-0.119,0.861-0.196l-0.153-0.534l0.339-0.175  L57.727,51.738z M52.37,34.218c-0.601,0-1.092,0.491-1.092,1.091c0,3.567-2.892,6.458-6.458,6.458c-3.557,0-6.447-2.891-6.447-6.458  c0-0.6-0.491-1.091-1.091-1.091c-0.611,0-1.091,0.491-1.091,1.091c0,3.917,2.618,7.233,6.186,8.281  c0.774,0.239,1.593,0.36,2.444,0.36c0.709,0,1.386-0.087,2.04-0.251c3.785-0.916,6.601-4.331,6.601-8.389  C53.461,34.709,52.97,34.218,52.37,34.218z M28.937,47.124c-0.426-0.426-1.113-0.426-1.539,0c-1.222,1.211-2.847,1.888-4.571,1.888  s-3.338-0.677-4.561-1.888c-2.52-2.52-2.52-6.611,0-9.131c0.426-0.425,0.426-1.113,0-1.538c-0.425-0.426-1.112-0.426-1.537,0  c-2.783,2.782-3.273,7.003-1.452,10.287c0.251,0.447,0.535,0.885,0.884,1.287c0.174,0.219,0.36,0.426,0.568,0.633  c0.065,0.065,0.13,0.131,0.207,0.186c0.415,0.403,0.862,0.753,1.342,1.036c1.352,0.862,2.913,1.309,4.549,1.309  c2.313,0,4.484-0.895,6.109-2.53C29.362,48.236,29.362,47.55,28.937,47.124z M26.089,21.487l-1.941,0.295  c-0.022-0.131-0.044-0.262-0.044-0.404l-0.01,0.012c-0.35,0.349-0.666,0.73-0.928,1.123c0.065-0.01,0.131-0.01,0.196-0.01  c0.545,0,1.091,0.054,1.626,0.174c0.327,0.077,0.666,0,0.928-0.207c0.25-0.208,0.403-0.523,0.403-0.851v-0.131H26.089z   M65.798,22.513c-0.174-0.262-0.359-0.501-0.599-0.741c-0.088-0.131-0.219-0.262-0.339-0.382c-0.272-0.273-0.567-0.535-0.873-0.753  c-0.251-0.208-0.513-0.382-0.785-0.545c-3.316-1.997-7.702-1.56-10.56,1.298c-0.426,0.425-0.426,1.113,0,1.538  c0.425,0.426,1.123,0.426,1.549,0c2.509-2.52,6.61-2.509,9.131,0c2.509,2.52,2.509,6.611,0,9.131c-0.437,0.426-0.437,1.113,0,1.539  c0.207,0.218,0.491,0.327,0.764,0.327c0.283,0,0.557-0.109,0.774-0.327C67.882,30.585,68.198,25.873,65.798,22.513z M73.075,36.455  c-0.426-0.426-1.112-0.426-1.55,0c-0.425,0.425-0.425,1.113,0,1.538c2.521,2.521,2.521,6.611,0,9.131c-2.509,2.51-6.61,2.52-9.119,0  c-0.426-0.426-1.124-0.426-1.55,0s-0.426,1.112,0,1.538c1.691,1.68,3.895,2.53,6.108,2.53c1.43,0,2.859-0.359,4.146-1.058  c0.512-0.283,1.003-0.611,1.451-1.015c0.174-0.142,0.35-0.294,0.513-0.458c0.185-0.186,0.359-0.381,0.523-0.577  c0.381-0.448,0.709-0.939,0.982-1.44C76.326,43.372,75.824,39.204,73.075,36.455z M41.013,51.062  c-0.338,0.284-0.698,0.536-1.08,0.754l0.174,7.898c-0.633-2.761-1.375-5.444-2.127-7.004c-0.328,0.119-0.666,0.207-1.015,0.272  c0.917,1.877,2.324,7.658,3.283,12.852c0.044,0.262,0.273,0.446,0.535,0.446h0.054c0.284-0.033,0.491-0.272,0.491-0.556  L41.013,51.062z M51.791,52.874c-0.73,1.581-1.44,4.167-2.052,6.84l0.164-7.55c-0.371-0.186-0.741-0.402-1.079-0.654l-0.307,14.215  c-0.01,0.283,0.209,0.522,0.491,0.556h0.055c0.263,0,0.491-0.185,0.535-0.446c0.938-5.096,2.313-10.769,3.239-12.753  C52.479,53.038,52.13,52.972,51.791,52.874z M44.733,84.728h-3.731c-3.35,0-3.447-1.603-3.447-1.811  c0-7.396-2.204-25.155-2.781-29.738c-0.077-0.6-0.131-0.972-0.143-1.069c-0.076-0.6-0.622-1.025-1.222-0.949  c-0.349,0.044-0.633,0.241-0.797,0.523v0.012c-0.054,0.076-0.086,0.164-0.108,0.262c-0.043,0.142-0.055,0.283-0.033,0.436  c0.011,0.033,0.087,0.655,0.219,1.713c0.676,5.368,2.683,21.939,2.683,28.758c-0.011,0.142-0.043,1.385,1.003,2.486  c0.993,1.036,2.542,1.561,4.626,1.561h3.731c0.6,0,1.091-0.491,1.091-1.091C45.824,85.219,45.333,84.728,44.733,84.728z   M40.784,66.28h0.054c0.284-0.033,0.491-0.272,0.491-0.556l-0.316-14.663c-0.338,0.284-0.698,0.536-1.08,0.754l0.174,7.898  c-0.633-2.761-1.375-5.444-2.127-7.004c-0.328,0.119-0.666,0.207-1.015,0.272c0.917,1.877,2.324,7.658,3.283,12.852  C40.292,66.096,40.521,66.28,40.784,66.28z M51.791,52.874c-0.73,1.581-1.44,4.167-2.052,6.84l0.164-7.55  c-0.371-0.186-0.741-0.402-1.079-0.654l-0.307,14.215c-0.01,0.283,0.209,0.522,0.491,0.556h0.055c0.263,0,0.491-0.185,0.535-0.446  c0.938-5.096,2.313-10.769,3.239-12.753C52.479,53.038,52.13,52.972,51.791,52.874z M56.939,51.847  c-0.152-0.358-0.468-0.643-0.883-0.687c-0.6-0.076-1.146,0.35-1.222,0.949c-0.012,0.098-0.065,0.47-0.143,1.069  c-0.578,4.583-2.78,22.354-2.78,29.793c0.01,0-0.012,0.458-0.405,0.884c-0.556,0.567-1.604,0.872-3.043,0.872h-3.731  c-0.6,0-1.091,0.491-1.091,1.092c0,0.6,0.491,1.091,1.091,1.091h3.731c2.084,0,3.633-0.524,4.626-1.561  c1.047-1.102,1.014-2.345,1.003-2.433c0-6.839,1.997-23.324,2.674-28.757c0.142-1.091,0.217-1.734,0.229-1.768  c0.011-0.098,0.011-0.186,0-0.272C56.983,52.022,56.963,51.935,56.939,51.847z M41.013,51.062l-0.021-0.949  c0-0.305-0.208-0.556-0.556-0.533c-0.295,0-0.535,0.251-0.535,0.556l0.033,1.681l0.174,7.898c-0.633-2.761-1.375-5.444-2.127-7.004  c-0.349-0.753-0.72-1.233-1.069-1.342c-0.316-0.098-0.622-0.012-0.873,0.229c-0.207,0.207-0.207,0.556,0,0.763  c0.164,0.163,0.415,0.207,0.611,0.12c0.098,0.099,0.208,0.272,0.316,0.502c0.917,1.877,2.324,7.658,3.283,12.852  c0.044,0.262,0.273,0.446,0.535,0.446h0.054c0.284-0.033,0.491-0.272,0.491-0.556L41.013,51.062z M53.798,51.598  c-0.239-0.241-0.556-0.327-0.861-0.229c-0.382,0.108-0.775,0.666-1.146,1.506c-0.73,1.581-1.44,4.167-2.052,6.84l0.164-7.55  l0.045-2.029c0-0.305-0.241-0.556-0.536-0.556c-0.01,0-0.01,0-0.01,0c-0.306,0-0.545,0.229-0.545,0.533l-0.033,1.397l-0.307,14.215  c-0.01,0.283,0.209,0.522,0.491,0.556h0.055c0.263,0,0.491-0.185,0.535-0.446c0.938-5.096,2.313-10.769,3.239-12.753  c0.132-0.272,0.252-0.48,0.36-0.601c0.196,0.087,0.437,0.055,0.6-0.109C54.017,52.153,54.017,51.805,53.798,51.598z M63.966,20.549  l0.021,0.087c-0.251-0.208-0.513-0.382-0.785-0.545c-0.131-3.938-3.371-7.102-7.331-7.102c-0.698,0-1.375,0.099-2.03,0.284  c-0.304,0.262-0.74,0.338-1.122,0.174c-0.403-0.164-0.666-0.567-0.666-1.003c0-4.047-3.294-7.342-7.353-7.342  c-3.938,0-7.167,3.12-7.342,7.025c0.044,0.186,0.033,0.393-0.032,0.579c-0.175,0.501-0.698,0.85-1.222,0.763  c-0.175-0.022-0.339-0.087-0.48-0.186c-0.665-0.196-1.353-0.294-2.062-0.294c-3.873,0-7.048,3.011-7.321,6.818  c-0.37,0.197-0.73,0.415-1.079,0.687c-0.372-0.076-0.743-0.12-1.124-0.152c0-5.258,4.276-9.535,9.524-9.535  c0.589,0,1.156,0.055,1.724,0.164c0.72-4.56,4.669-8.051,9.415-8.051c4.757,0,8.717,3.491,9.426,8.051  c0.578-0.109,1.155-0.164,1.745-0.164c5.259,0,9.523,4.277,9.523,9.535C64.915,20.375,64.435,20.44,63.966,20.549z M36.311,22.927  c-0.425,0.426-1.113,0.426-1.537,0c-2.521-2.52-6.623-2.509-9.131,0c-2.521,2.52-2.521,6.611,0,9.131  c0.425,0.426,0.425,1.113,0,1.539c-0.218,0.218-0.491,0.327-0.774,0.327c-0.285,0-0.557-0.109-0.774-0.327  c-3.012-3.011-3.328-7.724-0.928-11.084c0.065-0.01,0.131-0.01,0.196-0.01c0.545,0,1.091,0.054,1.626,0.174  c0.327,0.077,0.666,0,0.928-0.207c0.25-0.208,0.403-0.523,0.403-0.851v-0.131h-0.229l-1.941,0.295  c-0.022-0.131-0.044-0.262-0.044-0.404l-0.01,0.012c-0.35,0.349-0.666,0.73-0.928,1.123c-3.96,0.099-7.146,3.35-7.146,7.331  c0,0.447,0.033,0.895,0.121,1.331l-0.055-0.294l-1.091,0.186l-0.174-0.764c-0.328,0.076-0.644,0.164-0.96,0.273  c-0.011-0.241-0.022-0.491-0.022-0.731c0-5.247,4.266-9.523,9.524-9.523c0.23,0,0.447,0.01,0.677,0.022  c0.381,0.032,0.752,0.076,1.124,0.152c0.349-0.272,0.709-0.49,1.079-0.687c3.251-1.668,7.354-1.134,10.069,1.583  C36.736,21.815,36.736,22.502,36.311,22.927z"/>
<text x="0.0" y="105.75" font-size="4.5" font-weight="bold" font-family="Helvetica Neue, Helvetica, Arial-Unicode, Arial, Sans-serif" fill="#000000">Created by Katie Wright</text><text x="0.0" y="110.25" font-size="4.5" font-weight="bold" font-family="Helvetica Neue, Helvetica, Arial-Unicode, Arial, Sans-serif" fill="#000000">from the Noun Project</text></svg>