<svg xmlns="http://www.w3.org/2000/svg" xmlns:xlink="http://www.w3.org/1999/xlink" version="1.1" id="&#1057;&#1083;&#1086;&#1081;_1" x="0px" y="0px" width="100px" height="100px" viewBox="174.0 -10.0 100.0 135.0" enable-background="new 169 0 100 100" xml:space="preserve">
<path d="M244.101,56.892c0.501-3.286-0.754-6.71-3.441-9.397l-2.869-2.869l24.181-12.86c1.454-0.775,1.89-1.809,1.998-2.542  c0.228-1.519-0.8-2.962-2.637-3.485l-4.739-1.354c-0.097-0.027-0.325-0.141-0.578-0.394c-0.279-0.279-0.44-0.582-0.473-0.746  l-0.732-3.666c-0.413-2.063-2.336-4.129-4.373-4.684l-4.563-1.243c-0.338-0.092-1.164-0.911-1.257-1.246l-1.355-4.737  c-0.523-1.84-1.966-2.864-3.484-2.639c-0.733,0.11-1.768,0.545-2.541,2l-12.862,24.178l-2.869-2.869  c-2.685-2.685-6.11-3.94-9.397-3.439c-3.285,0.498-6.184,2.714-7.949,6.079l-28.569,54.396c-2.502,4.767-1.589,7.207-0.381,8.416  c1.21,1.209,3.651,2.123,8.417-0.38l54.397-28.57C241.386,63.076,243.601,60.179,244.101,56.892z M240.139,13.685  c0.557,1.95,2.557,3.927,4.51,4.458l4.563,1.246c0.096,0.025,0.325,0.136,0.578,0.389c0.268,0.268,0.423,0.559,0.454,0.716  l0.733,3.666c0.41,2.054,2.319,4.129,4.338,4.704l1.431,0.409l-21.681,11.53c-0.225,0.119-0.781,0.038-0.962-0.143l-0.763-0.763  l16.77-11.16c0.534-0.354,0.68-1.077,0.324-1.613c-0.357-0.535-1.079-0.681-1.615-0.324l-13.622,9.063l12.482-12.485  c0.455-0.455,0.457-1.191,0.002-1.646c-0.455-0.455-1.192-0.455-1.647,0l-12.482,12.484l8.87-13.987  c0.346-0.542,0.188-1.255-0.359-1.607c-0.542-0.343-1.262-0.182-1.604,0.361l-10.88,17.151l-1.236-1.234  c-0.181-0.181-0.264-0.737-0.145-0.961l11.534-21.682L240.139,13.685z M181.461,89.29c-1.377,0.723-2.293,0.975-2.793,1.042  c0.066-0.501,0.319-1.415,1.043-2.793l8.137-15.494l2.497,2.496c0.908,0.909,2.384,0.909,3.292,0  c0.909-0.909,0.909-2.384,0.001-3.292l-3.521-3.521l9.068-17.267l6.797,6.797c0.909,0.909,2.383,0.909,3.292,0  c0.908-0.91,0.908-2.383,0-3.292l-7.823-7.822l6.236-11.871l9.817,9.816c0.909,0.91,2.383,0.911,3.292,0.001  c0.909-0.908,0.909-2.384,0-3.293l-10.307-10.307c0.709-0.519,1.488-0.862,2.318-0.989c1.835-0.278,3.754,0.479,5.406,2.13  l19.154,19.154c1.652,1.652,2.409,3.572,2.13,5.405c-0.277,1.834-1.571,3.442-3.64,4.53l-4.368,2.293L220.796,52.32  c-0.909-0.909-2.384-0.909-3.292,0c-0.909,0.909-0.909,2.382-0.001,3.291l9.671,9.671L193.72,82.852l-4.198-4.196  c-0.908-0.909-2.383-0.909-3.293,0c-0.907,0.909-0.907,2.384,0,3.292l3.172,3.171L181.461,89.29z"/>
<path d="M209.272,73.718c0.909-0.909,0.909-2.382,0-3.292l-8.229-8.229c-0.909-0.909-2.384-0.909-3.292-0.001  c-0.909,0.909-0.909,2.383,0,3.292l8.229,8.23C206.891,74.627,208.364,74.626,209.272,73.718z"/>
<text x="169.0" y="117.5" font-size="5.0" font-weight="bold" font-family="Helvetica Neue, Helvetica, Arial-Unicode, Arial, Sans-serif" fill="#000000">Created by Ilsur Aptukov</text><text x="169.0" y="122.5" font-size="5.0" font-weight="bold" font-family="Helvetica Neue, Helvetica, Arial-Unicode, Arial, Sans-serif" fill="#000000">from the Noun Project</text></svg>