<svg xmlns="http://www.w3.org/2000/svg" xmlns:xlink="http://www.w3.org/1999/xlink" version="1.1" id="Layer_1" x="0px" y="0px" width="100px" height="100px" viewBox="5.0 -10.0 100.0 135.0" enable-background="new 0 0 100 100" xml:space="preserve">
<path fill="none" d="M-197.936,752.558c4.368-0.065,8.521-1.557,12.4-4.472c9.6-7.214,15.542-22.035,15.542-31.631  c0-16.4-10.656-29.545-26.592-34.377c7.54,8.523,8.805,20.262,8.805,31.253C-187.78,723.163-189.015,742.387-197.936,752.558z"/>
<path fill="none" d="M-252.02,716.738c0,10.464,6.148,25.857,15.301,32.095c3.015,2.055,6.17,2.968,9.423,2.742  c-8.174-10.966-8.15-30.25-7.72-38.402c0.718-13.609,4.655-24.076,11.716-31.301C-240.103,686.622-252.02,700.345-252.02,716.738z"/>
<path fill="none" d="M-163.993,716.455c0,9.655-4.927,23.271-13.384,32.291c16.595-4.303,27.804-17.957,27.804-35.395  c0-20.686-18.717-37.514-41.723-37.514c-1.539,0-3.063,0.083-4.574,0.231c7.311,2.067,13.884,5.697,19.148,10.686  C-168.513,694.531-163.993,705.079-163.993,716.455z"/>
<path fill="none" d="M-270.18,713.352c0,16.688,9.729,30.092,24.376,35.307c-7.669-8.733-12.216-22.189-12.216-31.92  c0-19.279,13.917-35.372,33.453-40.736c-1.287-0.107-2.583-0.164-3.891-0.164C-251.463,675.838-270.18,692.666-270.18,713.352z"/>
<path fill="none" d="M-216.469,683.739c-7.701,6.125-11.825,15.934-12.554,29.75c-0.87,16.479,2.046,29.939,7.8,36.005  c2.388,2.518,5.193,3.741,8.575,3.742l0.241-0.003c17.284-0.297,18.627-30.616,18.627-39.902c0-14.634-2.853-23.746-9.537-29.476  c-1.27,0.676-3.357,1.399-6.503,1.399C-213.056,685.255-215.226,684.419-216.469,683.739z"/>
<path d="M-195.869,676.069c-1.915-0.541-3.876-0.981-5.882-1.304c0.102,0.764,0.205,1.507,0.306,2.202  C-199.614,676.554-197.754,676.254-195.869,676.069z"/>
<path d="M-224.566,676.002c2.129,0.177,4.227,0.505,6.289,0.973c0.086-0.713,0.179-1.502,0.273-2.334  C-220.252,674.96-222.441,675.419-224.566,676.002z"/>
<path d="M-200.945,680.997c1.492,0.295,2.948,0.652,4.36,1.081c-1.366-1.544-2.933-2.984-4.741-4.294  c0.142,0.959,0.271,1.793,0.371,2.401C-200.911,680.458-200.916,680.729-200.945,680.997z"/>
<path d="M-218.369,677.716c-1.782,1.24-3.43,2.621-4.93,4.156c1.495-0.423,3.03-0.768,4.597-1.044  c-0.01-0.188-0.021-0.376,0.005-0.566C-218.692,680.229-218.555,679.221-218.369,677.716z"/>
<path d="M-209.82,682.255c-1.565,0-2.795-0.24-3.727-0.533c-1.02,0.626-2.004,1.288-2.922,2.018c1.243,0.68,3.414,1.516,6.649,1.516  c3.146,0,5.234-0.724,6.503-1.399c-0.874-0.75-1.819-1.439-2.827-2.077C-207.046,682.045-208.25,682.255-209.82,682.255z"/>
<path d="M-201.326,677.784c-0.039-0.264-0.079-0.534-0.119-0.816c-0.268,0.061-0.536,0.116-0.802,0.182  C-201.936,677.358-201.625,677.568-201.326,677.784z"/>
<path d="M-204.654,675.682c0.843,0.467,1.644,0.956,2.407,1.468c0.266-0.065,0.534-0.121,0.802-0.182  c-0.101-0.695-0.204-1.438-0.306-2.202c-1.015-0.162-2.042-0.288-3.077-0.394C-204.77,674.818-204.712,675.257-204.654,675.682z"/>
<path d="M-214.949,674.299c0.092-0.849,0.183-1.727,0.266-2.6c-0.975-0.269-1.956-0.511-2.945-0.721  c-0.113,1.227-0.246,2.484-0.377,3.662C-216.998,674.497-215.978,674.386-214.949,674.299z"/>
<path d="M-218.278,676.975c-0.031,0.257-0.062,0.507-0.091,0.741c0.275-0.191,0.54-0.394,0.821-0.578  C-217.79,677.078-218.035,677.03-218.278,676.975z"/>
<path d="M-215.103,675.67c0.051-0.444,0.103-0.902,0.154-1.371c-1.029,0.087-2.049,0.198-3.056,0.342  c-0.094,0.832-0.187,1.621-0.273,2.334c0.243,0.056,0.488,0.104,0.73,0.163C-216.758,676.621-215.944,676.131-215.103,675.67z"/>
<path d="M-203.917,680.667c0,0-0.645,0.644-2.228,1.111c1.008,0.638,1.953,1.327,2.827,2.077c0.872-0.465,1.362-0.906,1.529-1.074  c0.483-0.486,0.769-1.118,0.843-1.784c-0.983-0.193-1.982-0.356-2.997-0.49C-203.926,680.608-203.917,680.667-203.917,680.667z"/>
<path d="M-215.724,680.667c0,0,0.014-0.099,0.037-0.276c-1.019,0.113-2.022,0.263-3.015,0.438c0.044,0.814,0.402,1.588,1.037,2.126  c0.153,0.13,0.561,0.438,1.195,0.785c0.918-0.729,1.902-1.392,2.922-2.018C-215.014,681.261-215.724,680.667-215.724,680.667z"/>
<path d="M-204.365,677.73c0.2,1.37,0.363,2.4,0.422,2.776c1.015,0.134,2.014,0.297,2.997,0.49c0.03-0.268,0.034-0.539-0.01-0.812  c-0.099-0.608-0.229-1.442-0.371-2.401c-0.298-0.216-0.609-0.426-0.921-0.635C-202.958,677.324-203.663,677.521-204.365,677.73z"/>
<path d="M-202.247,677.149c-0.763-0.512-1.564-1.001-2.407-1.468c0.1,0.733,0.198,1.425,0.289,2.049  C-203.663,677.521-202.958,677.324-202.247,677.149z"/>
<path d="M-215.349,677.742c-0.729-0.218-1.46-0.424-2.199-0.604c-0.282,0.185-0.546,0.387-0.821,0.578  c-0.186,1.505-0.323,2.514-0.328,2.546c-0.026,0.19-0.016,0.379-0.005,0.566c0.993-0.175,1.997-0.324,3.015-0.438  C-215.627,679.944-215.501,678.986-215.349,677.742z"/>
<path d="M-217.547,677.138c0.738,0.181,1.47,0.387,2.199,0.604c0.077-0.628,0.161-1.328,0.246-2.072  C-215.944,676.131-216.758,676.621-217.547,677.138z"/>
<path d="M-210.549,680.077c-1.05,0.497-2.039,1.056-2.998,1.645c0.931,0.293,2.162,0.533,3.727,0.533c1.57,0,2.774-0.21,3.676-0.477  c-0.954-0.604-1.951-1.174-3.028-1.686C-209.629,680.078-210.092,680.067-210.549,680.077z"/>
<path d="M-191.295,669.838c-3.715,0-7.361,0.397-10.916,1.159c-0.229-2.123-0.375-4.043-0.311-5.127  c0.083-1.42,0.982-5.736,1.53-8.124c0.194-0.846,0.012-1.733-0.499-2.435c-0.391-0.538-2.631-3.218-8.368-3.218  c-5.148,0-7.768,2.627-8.05,2.927c-0.66,0.702-0.943,1.679-0.761,2.625c0.633,3.278,1.334,7.297,1.361,8.049  c0,1.358-0.134,3.28-0.319,5.284c0.989,0.21,1.97,0.452,2.945,0.721c0.983,0.271,1.959,0.569,2.927,0.9  c0.249-2.532,0.447-5.107,0.447-6.905c0-1.086-0.575-4.421-1.087-7.174c0.604-0.229,1.443-0.427,2.537-0.427  c1.159,0,1.992,0.165,2.567,0.354c-0.465,2.17-1.125,5.458-1.219,7.07c-0.096,1.638,0.131,4.371,0.445,7.104  c0.964-0.331,1.938-0.629,2.918-0.901c0.099,0.885,0.208,1.782,0.32,2.651c1.035,0.105,2.062,0.231,3.077,0.394  c2.006,0.322,3.967,0.763,5.882,1.304c1.51-0.148,3.035-0.231,4.574-0.231c23.006,0,41.723,16.828,41.723,37.514  c0,17.438-11.209,31.092-27.804,35.395c8.457-9.02,13.384-22.636,13.384-32.291c0-11.376-4.52-21.924-12.728-29.7  c-5.264-4.988-11.838-8.618-19.148-10.686c-1.885,0.185-3.745,0.484-5.576,0.898c0.041,0.282,0.08,0.553,0.119,0.816  c1.808,1.31,3.375,2.75,4.741,4.294c15.936,4.832,26.592,17.977,26.592,34.377c0,9.596-5.942,24.417-15.542,31.631  c-3.88,2.915-8.032,4.406-12.4,4.472c8.92-10.171,10.156-29.395,10.156-39.227c0-10.991-1.265-22.729-8.805-31.253  c-1.412-0.429-2.869-0.786-4.36-1.081c-0.074,0.666-0.36,1.298-0.843,1.784c-0.167,0.168-0.657,0.609-1.529,1.074  c6.685,5.729,9.537,14.842,9.537,29.476c0,9.286-1.343,39.605-18.627,39.902l-0.241,0.003c-3.382-0.001-6.188-1.225-8.575-3.742  c-5.754-6.065-8.67-19.525-7.8-36.005c0.729-13.816,4.854-23.625,12.554-29.75c-0.634-0.347-1.042-0.655-1.195-0.785  c-0.635-0.538-0.993-1.312-1.037-2.126c-1.567,0.276-3.103,0.621-4.597,1.044c-7.061,7.225-10.998,17.691-11.716,31.301  c-0.43,8.152-0.454,27.437,7.72,38.402c-3.253,0.226-6.408-0.688-9.423-2.742c-9.153-6.237-15.301-21.631-15.301-32.095  c0-16.394,11.917-30.116,28.721-34.866c1.5-1.535,3.148-2.916,4.93-4.156c0.029-0.234,0.06-0.484,0.091-0.741  c-2.062-0.468-4.159-0.796-6.289-0.973c-19.536,5.364-33.453,21.457-33.453,40.736c0,9.73,4.547,23.187,12.216,31.92  c-14.646-5.215-24.376-18.619-24.376-35.307c0-20.686,18.717-37.514,41.723-37.514c1.307,0,2.604,0.057,3.891,0.164  c2.125-0.583,4.314-1.042,6.562-1.361c0.132-1.178,0.264-2.436,0.377-3.662c-3.528-0.75-7.145-1.141-10.83-1.141  c-26.314,0-47.723,19.521-47.723,43.514c0,24.379,17.871,42.729,42.492,43.631c0.038,0.001,0.075,0.002,0.112,0.002  c0.106,0,0.207-0.02,0.31-0.03c1.644,0.434,3.315,0.664,5.003,0.664c2.088,0,4.201-0.35,6.316-1.018  c2.754,1.737,5.86,2.635,9.298,2.636l0.344-0.003c2.762-0.048,5.217-0.586,7.397-1.517c2.238,0.551,4.459,0.842,6.646,0.842  c3.745,0,7.389-0.817,10.857-2.408c25.418-0.652,43.831-18.595,43.831-42.799C-143.573,689.358-164.981,669.838-191.295,669.838z"/>
<path d="M-207.884,674.145c1.027,0.047,2.045,0.125,3.056,0.228c-0.112-0.869-0.222-1.767-0.32-2.651  c-0.98,0.272-1.954,0.57-2.918,0.901C-208.008,673.133-207.947,673.642-207.884,674.145z"/>
<path d="M-207.879,674.182c0.226,0.045,0.449,0.107,0.66,0.203c0.898,0.407,1.747,0.844,2.565,1.297  c-0.058-0.425-0.116-0.863-0.174-1.31c-1.011-0.103-2.029-0.181-3.056-0.228C-207.882,674.157-207.881,674.169-207.879,674.182z"/>
<path d="M-211.756,672.6c-0.967-0.331-1.943-0.629-2.927-0.9c-0.083,0.873-0.174,1.751-0.266,2.6  c1.003-0.086,2.015-0.147,3.037-0.178C-211.858,673.62-211.807,673.11-211.756,672.6z"/>
<path d="M-212.487,674.362c0.184-0.083,0.375-0.146,0.57-0.19c0.001-0.017,0.003-0.034,0.005-0.051  c-1.022,0.03-2.033,0.092-3.037,0.178c-0.051,0.469-0.103,0.927-0.154,1.371C-214.256,675.207-213.386,674.77-212.487,674.362z"/>
<path d="M-208.554,680.115c-0.005,0-0.01-0.001-0.015-0.001c-0.034-0.001-0.066-0.012-0.1-0.014  c-0.161-0.012-0.321-0.028-0.481-0.066c-0.137-0.032-0.265-0.084-0.394-0.134c-0.052-0.021-0.106-0.03-0.158-0.054  c-0.007-0.003-0.015-0.006-0.022-0.01c-0.002-0.001-0.004-0.001-0.005-0.002c-0.049-0.022-0.1-0.043-0.15-0.065  c-0.043,0.02-0.087,0.037-0.13,0.057c-0.002,0.001-0.004,0.001-0.006,0.002c-0.142,0.064-0.293,0.109-0.446,0.151  c-0.043,0.012-0.084,0.032-0.127,0.043c-0.011,0.002-0.022,0.001-0.033,0.004c-0.188,0.041-0.378,0.064-0.567,0.067  c-0.001,0-0.002,0.001-0.004,0.001c-1.521,0.029-3.019,0.132-4.493,0.296c-0.023,0.178-0.037,0.276-0.037,0.276  s0.709,0.594,2.177,1.055c0.959-0.589,1.948-1.147,2.998-1.645c0.457-0.01,0.92,0.001,1.377,0.016  c1.077,0.512,2.074,1.082,3.028,1.686c1.583-0.468,2.228-1.111,2.228-1.111s-0.009-0.059-0.026-0.16  c-1.499-0.196-3.028-0.332-4.591-0.391C-208.541,680.116-208.547,680.115-208.554,680.115z"/>
<path d="M-209.729,679.835c-0.045-0.021-0.083-0.052-0.126-0.075c-0.008,0.004-0.016,0.007-0.023,0.01  C-209.829,679.792-209.778,679.812-209.729,679.835z"/>
<path d="M-209.544,679.9c-0.059-0.023-0.123-0.036-0.18-0.063c0.007,0.004,0.015,0.007,0.022,0.01  C-209.65,679.87-209.596,679.88-209.544,679.9z"/>
<path d="M-208.534,680.116c-0.007,0-0.013-0.001-0.02-0.001C-208.547,680.115-208.541,680.116-208.534,680.116z"/>
<path d="M-209.15,680.034c0.16,0.038,0.321,0.055,0.481,0.066C-208.833,680.089-208.995,680.07-209.15,680.034z"/>
<path d="M-208.554,680.115c-0.038-0.001-0.077-0.012-0.115-0.015c0.034,0.002,0.065,0.013,0.1,0.014  C-208.564,680.114-208.559,680.115-208.554,680.115z"/>
<path d="M-205.729,678.359c-0.514,1.129-1.639,1.786-2.805,1.757c1.563,0.059,3.092,0.194,4.591,0.391  c-0.06-0.376-0.222-1.406-0.422-2.776c-0.423,0.126-0.848,0.252-1.268,0.391C-205.661,678.201-205.693,678.28-205.729,678.359z"/>
<path d="M-209.729,679.835c0.001,0.001,0.003,0.001,0.005,0.002C-209.726,679.836-209.727,679.836-209.729,679.835z"/>
<path d="M-209.544,679.9c0.129,0.05,0.257,0.102,0.394,0.134C-209.283,680.002-209.413,679.951-209.544,679.9z"/>
<path d="M-207.879,674.182c0.004,0.034,0.008,0.068,0.013,0.103c0.616,0.559,0.99,1.355,0.99,2.218c0,0.581-0.171,1.131-0.468,1.602  c0.044,0.301,0.087,0.592,0.127,0.859c-0.36,0.093-0.813,0.174-1.346,0.228c-0.055,0.026-0.107,0.06-0.165,0.083  c-0.379,0.157-0.754,0.32-1.127,0.486c0.043,0.023,0.082,0.054,0.126,0.075c0.002,0.001,0.003,0.001,0.005,0.002  c0.057,0.027,0.121,0.04,0.18,0.063c0.131,0.051,0.261,0.102,0.394,0.134c0.155,0.036,0.317,0.055,0.481,0.066  c0.038,0.003,0.077,0.014,0.115,0.015c0.007,0,0.013,0.001,0.02,0.001c1.166,0.029,2.292-0.628,2.805-1.757  c0.036-0.079,0.068-0.158,0.096-0.238c0.42-0.139,0.844-0.265,1.268-0.391c-0.091-0.624-0.189-1.315-0.289-2.049  c-0.819-0.453-1.667-0.89-2.565-1.297C-207.43,674.289-207.653,674.227-207.879,674.182z"/>
<path d="M-210.461,679.979c-0.043,0.012-0.083,0.032-0.127,0.043C-210.546,680.012-210.504,679.991-210.461,679.979z"/>
<path d="M-210.015,679.828c0.002-0.001,0.004-0.001,0.006-0.002c0.043-0.02,0.087-0.037,0.13-0.057  c-0.006-0.002-0.013-0.005-0.019-0.008C-209.938,679.782-209.974,679.81-210.015,679.828z"/>
<path d="M-210.622,680.026c-0.184,0.039-0.373,0.063-0.567,0.067C-211,680.091-210.811,680.067-210.622,680.026z"/>
<path d="M-209.898,679.762c0.006,0.003,0.013,0.006,0.019,0.008c0.008-0.003,0.016-0.006,0.023-0.01  c-0.007-0.003-0.013-0.008-0.02-0.011C-209.883,679.753-209.89,679.758-209.898,679.762z"/>
<path d="M-206.876,676.502c0-0.862-0.374-1.659-0.99-2.218c0.174,1.383,0.358,2.704,0.521,3.819  C-207.048,677.633-206.876,677.083-206.876,676.502z"/>
<path d="M-209.875,679.749c0.007,0.003,0.013,0.008,0.02,0.011c0.373-0.166,0.748-0.329,1.127-0.486  c0.058-0.023,0.109-0.057,0.165-0.083c-0.188,0.019-0.384,0.034-0.595,0.045C-209.369,679.441-209.611,679.611-209.875,679.749z"/>
<path d="M-210.589,680.022c-0.011,0.002-0.022,0.001-0.033,0.004C-210.611,680.023-210.6,680.024-210.589,680.022z"/>
<path d="M-211.189,680.094c-1.161,0.023-2.28-0.632-2.792-1.756c-0.03-0.065-0.057-0.131-0.082-0.197  c-0.426-0.142-0.856-0.27-1.286-0.398c-0.153,1.244-0.278,2.202-0.338,2.648c1.474-0.164,2.972-0.267,4.493-0.296  C-211.192,680.095-211.191,680.094-211.189,680.094z"/>
<path d="M-210.015,679.828c-0.146,0.066-0.296,0.11-0.446,0.151C-210.309,679.938-210.157,679.893-210.015,679.828z"/>
<path d="M-213.981,678.338c0.512,1.124,1.631,1.779,2.792,1.756c0.195-0.004,0.384-0.028,0.567-0.067  c0.011-0.003,0.022-0.002,0.033-0.004c0.044-0.011,0.084-0.031,0.127-0.043c0.15-0.041,0.3-0.085,0.446-0.151  c0.041-0.019,0.077-0.046,0.117-0.066c-0.372-0.167-0.746-0.331-1.125-0.487c-0.076-0.031-0.146-0.072-0.218-0.109  c-0.478-0.062-0.891-0.148-1.23-0.243c0.03-0.238,0.062-0.496,0.095-0.763c-0.319-0.481-0.5-1.054-0.5-1.656  c0-0.839,0.355-1.616,0.942-2.173c0.006-0.054,0.012-0.105,0.018-0.158c-0.196,0.044-0.387,0.107-0.57,0.19  c-0.899,0.407-1.769,0.845-2.615,1.308c-0.085,0.744-0.169,1.444-0.246,2.072c0.43,0.129,0.859,0.257,1.286,0.398  C-214.038,678.207-214.011,678.272-213.981,678.338z"/>
<path d="M-212.876,676.503c0,0.603,0.181,1.175,0.5,1.656c0.135-1.102,0.292-2.427,0.442-3.829  C-212.521,674.887-212.877,675.664-212.876,676.503z"/>
<path d="M-210.577,679.229c-0.236-0.016-0.455-0.038-0.664-0.064c0.072,0.037,0.142,0.078,0.218,0.109  c0.379,0.156,0.753,0.32,1.125,0.487c0.008-0.004,0.015-0.009,0.023-0.013C-210.134,679.609-210.371,679.436-210.577,679.229z"/>
<path d="M-210.577,679.229c0.206,0.206,0.442,0.38,0.702,0.52c0.264-0.138,0.506-0.308,0.716-0.514  c-0.211,0.011-0.427,0.02-0.662,0.02C-210.087,679.255-210.338,679.245-210.577,679.229z"/>
<path fill="none" d="M57.66,80.085c2.803-0.042,5.467-0.998,7.956-2.868c6.159-4.629,9.972-14.138,9.972-20.294  c0-10.523-6.836-18.956-17.061-22.056c4.837,5.468,5.648,12.999,5.648,20.052C64.176,61.228,63.383,73.561,57.66,80.085z"/>
<path fill="none" d="M22.962,57.104c0,6.714,3.945,16.59,9.817,20.591c1.934,1.318,3.958,1.904,6.045,1.76  c-5.244-7.035-5.229-19.407-4.953-24.638c0.46-8.732,2.986-15.447,7.517-20.083C30.608,37.782,22.962,46.586,22.962,57.104z"/>
<path fill="none" d="M79.438,56.923c0,6.195-3.162,14.931-8.588,20.717c10.646-2.76,17.84-11.52,17.84-22.707  c0-13.273-12.01-24.069-26.769-24.069c-0.987,0-1.966,0.053-2.935,0.148c4.689,1.326,8.908,3.655,12.285,6.855  C76.537,42.856,79.438,49.624,79.438,56.923z"/>
<path fill="none" d="M11.312,54.933c0,10.705,6.242,19.306,15.639,22.651c-4.92-5.604-7.837-14.236-7.837-20.479  c0-12.37,8.929-22.694,21.462-26.136c-0.825-0.069-1.657-0.105-2.496-0.105C23.32,30.864,11.312,41.66,11.312,54.933z"/>
<path fill="none" d="M45.77,35.933c-4.94,3.93-7.586,10.223-8.054,19.088c-0.558,10.572,1.313,19.208,5.004,23.1  c1.532,1.615,3.332,2.4,5.501,2.4l0.154-0.002c11.089-0.19,11.951-19.642,11.951-25.6c0-9.39-1.831-15.236-6.118-18.912  c-0.814,0.434-2.154,0.898-4.173,0.898C47.96,36.905,46.568,36.369,45.77,35.933z"/>
<path d="M61.921,27.014c-2.384,0-4.723,0.255-7.003,0.744c-0.147-1.362-0.24-2.594-0.199-3.289c0.053-0.911,0.63-3.68,0.98-5.212  c0.125-0.542,0.008-1.112-0.319-1.562c-0.251-0.345-1.688-2.064-5.369-2.064c-3.303,0-4.984,1.686-5.165,1.878  c-0.423,0.45-0.605,1.077-0.488,1.684c0.407,2.103,0.856,4.681,0.873,5.164c0,0.872-0.086,2.104-0.204,3.39  c-2.264-0.481-4.584-0.732-6.948-0.732c-16.882,0-30.617,12.523-30.617,27.918c0,15.641,11.465,27.412,27.261,27.991  c0.024,0.001,0.048,0.002,0.072,0.002c0.068,0,0.132-0.013,0.199-0.02c1.055,0.278,2.126,0.426,3.21,0.426  c1.339,0,2.695-0.225,4.052-0.653c1.767,1.115,3.759,1.69,5.965,1.691l0.221-0.002c1.772-0.03,3.347-0.376,4.746-0.973  c1.436,0.354,2.86,0.54,4.265,0.54c2.401,0,4.74-0.524,6.965-1.545c16.307-0.419,28.119-11.931,28.119-27.458  C92.537,39.538,78.803,27.014,61.921,27.014z M48.383,19.753c0.387-0.146,0.926-0.274,1.628-0.274c0.743,0,1.278,0.106,1.647,0.228  c-0.299,1.392-0.721,3.502-0.783,4.536c-0.062,1.051,0.084,2.804,0.286,4.557c0.038,0.328,0.076,0.654,0.117,0.977  c0.001,0.008,0.002,0.016,0.003,0.024c0.002,0.021,0.006,0.043,0.008,0.065c0.113,0.887,0.23,1.735,0.335,2.451  c0.028,0.193,0.056,0.379,0.081,0.551c-0.23,0.06-0.521,0.111-0.863,0.146c-0.121,0.012-0.246,0.022-0.382,0.029  c-0.135,0.007-0.274,0.012-0.425,0.012c-0.171,0-0.332-0.006-0.485-0.016c-0.151-0.01-0.292-0.024-0.426-0.042  c-0.307-0.04-0.571-0.095-0.79-0.156c0.02-0.153,0.04-0.318,0.061-0.489c0.087-0.707,0.187-1.557,0.283-2.457  c0.004-0.035,0.008-0.068,0.012-0.102c0-0.011,0.002-0.022,0.003-0.033c0.035-0.321,0.068-0.648,0.1-0.976  c0.16-1.625,0.287-3.277,0.287-4.43C49.081,23.659,48.712,21.52,48.383,19.753z M11.312,54.933  c0-13.273,12.008-24.069,26.768-24.069c0.839,0,1.671,0.036,2.496,0.105C28.042,34.41,19.113,44.735,19.113,57.104  c0,6.243,2.917,14.876,7.837,20.479C17.554,74.238,11.312,65.638,11.312,54.933z M32.779,77.695  c-5.872-4.001-9.817-13.877-9.817-20.591c0-10.518,7.646-19.322,18.426-22.37c-4.53,4.635-7.056,11.35-7.517,20.083  c-0.276,5.23-0.291,17.603,4.953,24.638C36.738,79.6,34.713,79.014,32.779,77.695z M48.376,80.519l-0.154,0.002  c-2.17,0-3.97-0.785-5.501-2.4c-3.691-3.892-5.562-12.527-5.004-23.1c0.468-8.865,3.114-15.158,8.054-19.088  c0.798,0.436,2.19,0.973,4.266,0.973c2.019,0,3.359-0.464,4.173-0.898c4.287,3.676,6.118,9.522,6.118,18.912  C60.327,60.877,59.465,80.328,48.376,80.519z M65.616,77.217c-2.489,1.87-5.153,2.826-7.956,2.868  c5.723-6.524,6.516-18.857,6.516-25.166c0-7.053-0.812-14.583-5.648-20.052c10.225,3.1,17.061,11.533,17.061,22.056  C75.588,63.079,71.775,72.588,65.616,77.217z M70.85,77.64c5.426-5.786,8.588-14.521,8.588-20.717c0-7.299-2.9-14.066-8.166-19.055  c-3.377-3.2-7.596-5.529-12.285-6.855c0.969-0.095,1.947-0.148,2.935-0.148c14.759,0,26.769,10.796,26.769,24.069  C88.689,66.12,81.496,74.88,70.85,77.64z"/>
<text x="0.0" y="117.5" font-size="5.0" font-weight="bold" font-family="Helvetica Neue, Helvetica, Arial-Unicode, Arial, Sans-serif" fill="#000000">Created by Penny Wongpaibool</text><text x="0.0" y="122.5" font-size="5.0" font-weight="bold" font-family="Helvetica Neue, Helvetica, Arial-Unicode, Arial, Sans-serif" fill="#000000">from the Noun Project</text></svg>