<svg xmlns="http://www.w3.org/2000/svg" xmlns:xlink="http://www.w3.org/1999/xlink" version="1.1" id="Layer_1" x="0px" y="0px" width="48px" height="48px" viewBox="2.4 -4.8 48.0 64.8" enable-background="new 0 0 48 48" xml:space="preserve">
<g>
	<path d="M4.028,47.999c-1.171,0-2.639-0.085-3.598-0.749c-0.333-0.231-0.494-0.641-0.407-1.037c0.087-0.396,0.404-0.7,0.804-0.771   c2.502-0.438,4.193-1.07,5.436-3.005c0.528-0.819,0.527-1.606,0.527-2.798c0-0.169-0.005-0.315-0.014-0.454   c-1.49-2.322-2.277-5.008-2.277-7.785c0-7.921,6.406-14.366,14.281-14.366S33.061,23.479,33.061,31.4   c0,7.921-6.407,14.365-14.282,14.365c-1.442,0-2.875-0.223-4.267-0.663c-1.068,0.362-2.107,1.039-3.115,1.696l-0.514,0.334   c-1.435,0.924-2.86,0.879-4.279,0.847c-0.472-0.009-0.936-0.012-1.523,0.003C4.75,47.99,4.392,47.999,4.028,47.999z M5.835,45.969   c0.274,0,0.545,0.006,0.813,0.012c0.246,0.005,0.489,0.011,0.728,0.011c0.979,0,1.727-0.091,2.426-0.541l0.504-0.327   c1.165-0.759,2.484-1.619,3.943-2.032c0.195-0.056,0.404-0.051,0.596,0.016c1.28,0.438,2.604,0.659,3.935,0.659   c6.772,0,12.282-5.547,12.282-12.365s-5.51-12.366-12.282-12.366c-6.771,0-12.281,5.548-12.281,12.366   c0,2.47,0.722,4.854,2.086,6.897c0.094,0.141,0.15,0.302,0.165,0.47c0.024,0.273,0.04,0.545,0.04,0.803   c0,1.389,0,2.635-0.845,3.949c-0.704,1.096-1.526,1.878-2.467,2.453C5.602,45.971,5.722,45.969,5.835,45.969z"/>
	<path d="M25.726,20.51c-0.383,0-0.748-0.221-0.914-0.593c-0.226-0.504,0.001-1.096,0.506-1.321   c6.376-2.846,4.961-17.348,4.945-17.494c-0.056-0.549,0.343-1.041,0.893-1.097c0.558-0.055,1.04,0.342,1.098,0.892   c0.067,0.655,1.573,16.092-6.121,19.526C26,20.482,25.861,20.51,25.726,20.51z"/>
	<path d="M28.82,23.658c-0.108,0-0.218-0.018-0.326-0.055c-0.521-0.18-0.799-0.749-0.619-1.271   c0.054-0.157,5.57-15.689,19.155-15.272c0.552,0.017,0.986,0.478,0.97,1.03s-0.467,1.001-1.03,0.969   C34.85,8.711,29.815,22.84,29.766,22.983C29.623,23.397,29.235,23.658,28.82,23.658z"/>
	<path d="M27.205,21.61c-0.237,0-0.476-0.084-0.667-0.255c-0.411-0.368-0.446-1-0.078-1.412c0.081-0.091,8.234-9,18.262-2.758   c0.469,0.292,0.612,0.909,0.32,1.377c-0.292,0.47-0.91,0.612-1.377,0.321c-8.615-5.365-15.428,2.074-15.715,2.394   C27.753,21.498,27.479,21.61,27.205,21.61z"/>
</g>
<text x="0.0" y="56.4" font-size="2.4" font-weight="bold" font-family="Helvetica Neue, Helvetica, Arial-Unicode, Arial, Sans-serif" fill="#000000">Created by Creative Stall</text><text x="0.0" y="58.8" font-size="2.4" font-weight="bold" font-family="Helvetica Neue, Helvetica, Arial-Unicode, Arial, Sans-serif" fill="#000000">from the Noun Project</text></svg>